<svg aria-hidden="true" style="position: absolute; width: 0; height: 0; overflow: hidden;" version="1.1" xmlns="http://www.w3.org/2000/svg" xmlns:xlink="http://www.w3.org/1999/xlink">
<defs>
<symbol id="icon-location" viewBox="0 0 32 32">
<path d="M16 0c-5.523 0-10 4.477-10 10 0 10 10 22 10 22s10-12 10-22c0-5.523-4.477-10-10-10zM16 16c-3.314 0-6-2.686-6-6s2.686-6 6-6 6 2.686 6 6-2.686 6-6 6z"></path>
</symbol>
<symbol id="icon-mobile" viewBox="0 0 32 32">
<path d="M24 0h-18c-1.1 0-2 0.9-2 2v28c0 1.1 0.9 2 2 2h18c1.1 0 2-0.9 2-2v-28c0-1.1-0.9-2-2-2zM15 30.556c-0.859 0-1.556-0.697-1.556-1.556s0.697-1.556 1.556-1.556 1.556 0.697 1.556 1.556-0.697 1.556-1.556 1.556zM24 26h-18v-22h18v22z"></path>
</symbol>
<symbol id="icon-instagram" viewBox="0 0 32 32">
<path d="M16 2.881c4.275 0 4.781 0.019 6.462 0.094 1.563 0.069 2.406 0.331 2.969 0.55 0.744 0.288 1.281 0.638 1.837 1.194 0.563 0.563 0.906 1.094 1.2 1.838 0.219 0.563 0.481 1.412 0.55 2.969 0.075 1.688 0.094 2.194 0.094 6.463s-0.019 4.781-0.094 6.463c-0.069 1.563-0.331 2.406-0.55 2.969-0.288 0.744-0.637 1.281-1.194 1.837-0.563 0.563-1.094 0.906-1.837 1.2-0.563 0.219-1.413 0.481-2.969 0.55-1.688 0.075-2.194 0.094-6.463 0.094s-4.781-0.019-6.463-0.094c-1.563-0.069-2.406-0.331-2.969-0.55-0.744-0.288-1.281-0.637-1.838-1.194-0.563-0.563-0.906-1.094-1.2-1.837-0.219-0.563-0.481-1.413-0.55-2.969-0.075-1.688-0.094-2.194-0.094-6.463s0.019-4.781 0.094-6.463c0.069-1.563 0.331-2.406 0.55-2.969 0.288-0.744 0.638-1.281 1.194-1.838 0.563-0.563 1.094-0.906 1.838-1.2 0.563-0.219 1.412-0.481 2.969-0.55 1.681-0.075 2.188-0.094 6.463-0.094zM16 0c-4.344 0-4.887 0.019-6.594 0.094-1.7 0.075-2.869 0.35-3.881 0.744-1.056 0.412-1.95 0.956-2.837 1.85-0.894 0.888-1.438 1.781-1.85 2.831-0.394 1.019-0.669 2.181-0.744 3.881-0.075 1.713-0.094 2.256-0.094 6.6s0.019 4.887 0.094 6.594c0.075 1.7 0.35 2.869 0.744 3.881 0.413 1.056 0.956 1.95 1.85 2.837 0.887 0.887 1.781 1.438 2.831 1.844 1.019 0.394 2.181 0.669 3.881 0.744 1.706 0.075 2.25 0.094 6.594 0.094s4.888-0.019 6.594-0.094c1.7-0.075 2.869-0.35 3.881-0.744 1.050-0.406 1.944-0.956 2.831-1.844s1.438-1.781 1.844-2.831c0.394-1.019 0.669-2.181 0.744-3.881 0.075-1.706 0.094-2.25 0.094-6.594s-0.019-4.887-0.094-6.594c-0.075-1.7-0.35-2.869-0.744-3.881-0.394-1.063-0.938-1.956-1.831-2.844-0.887-0.887-1.781-1.438-2.831-1.844-1.019-0.394-2.181-0.669-3.881-0.744-1.712-0.081-2.256-0.1-6.6-0.1v0z"></path>
<path d="M16 7.781c-4.537 0-8.219 3.681-8.219 8.219s3.681 8.219 8.219 8.219 8.219-3.681 8.219-8.219c0-4.537-3.681-8.219-8.219-8.219zM16 21.331c-2.944 0-5.331-2.387-5.331-5.331s2.387-5.331 5.331-5.331c2.944 0 5.331 2.387 5.331 5.331s-2.387 5.331-5.331 5.331z"></path>
<path d="M26.462 7.456c0 1.060-0.859 1.919-1.919 1.919s-1.919-0.859-1.919-1.919c0-1.060 0.859-1.919 1.919-1.919s1.919 0.859 1.919 1.919z"></path>
</symbol>
<symbol id="icon-trace" viewBox="0 0 32 32">
<path d="M15.781 0.048c0.103-0.012 0.286-0.011 0.406 0.002s3.327 0.642 7.125 1.396c7.678 1.526 7.421 1.459 7.974 2.072 0.306 0.339 0.56 0.806 0.626 1.154 0.021 0.111 0.064 0.187 0.094 0.168 0.074-0.046 0.072 1.131-0.002 1.271-0.031 0.060-0.103 0.516-0.159 1.015-0.416 3.708-1.169 7.302-2.172 10.375-2.118 6.485-5.521 10.911-10.142 13.189-1.335 0.658-3.005 1.248-3.531 1.248-0.53 0-2.143-0.572-3.531-1.251-5.289-2.589-8.94-7.96-11-16.177-0.667-2.661-1.354-6.81-1.45-8.76-0.051-1.035 0.124-1.594 0.699-2.234 0.548-0.609 0.295-0.544 7.97-2.071 3.798-0.756 6.991-1.384 7.094-1.396zM8.938 2.464c-3.798 0.764-6.963 1.409-7.031 1.433-0.334 0.117-0.681 0.576-0.81 1.074-0.084 0.323-0.084 0.456 0.002 1.242 0.953 8.723 3.044 14.952 6.441 19.187 1.631 2.033 3.729 3.658 6.023 4.663 0.764 0.335 2.193 0.812 2.431 0.812 0.27 0 1.735-0.499 2.601-0.887 2.885-1.291 5.387-3.545 7.28-6.561 0.545-0.868 1.649-3.074 2.060-4.114 1.403-3.556 2.367-7.77 2.939-12.846 0.116-1.028 0.119-1.159 0.034-1.485-0.112-0.43-0.332-0.776-0.614-0.967-0.169-0.115-1.538-0.407-7.234-1.547-3.864-0.773-7.068-1.403-7.12-1.399s-3.202 0.631-7.001 1.395zM9.372 3.811c3.559-0.714 6.51-1.3 6.556-1.304 0.105-0.008 13.186 2.593 13.34 2.653 0.061 0.024 0.153 0.124 0.204 0.222 0.083 0.16 0.079 0.296-0.037 1.289-0.472 4.033-1.154 7.32-2.117 10.204-2.193 6.568-5.805 10.742-10.709 12.374l-0.61 0.203-0.608-0.201c-3.797-1.256-6.86-4.094-9.040-8.376-1.951-3.831-3.14-8.385-3.849-14.736-0.072-0.646-0.004-0.902 0.261-0.987 0.076-0.024 3.051-0.628 6.61-1.341zM9.739 4.803c-3.358 0.676-6.123 1.247-6.146 1.27-0.048 0.048 0.096 1.319 0.319 2.802 1.345 8.98 4.242 14.888 8.776 17.896 0.742 0.492 2.181 1.209 2.859 1.423l0.453 0.143 0.453-0.143c0.678-0.215 2.117-0.931 2.859-1.423 4.767-3.162 7.746-9.584 8.974-19.342 0.092-0.733 0.141-1.335 0.111-1.362-0.059-0.053-12.308-2.508-12.46-2.498-0.052 0.003-2.841 0.559-6.198 1.234zM0.023 5.5c0 0.361 0.010 0.509 0.023 0.328s0.013-0.476 0-0.656c-0.013-0.181-0.023-0.033-0.023 0.328zM15.406 5.619c0.341-0.159 0.917-0.154 1.278 0.010 0.153 0.069 0.439 0.28 0.636 0.467 0.391 0.373 0.471 0.394 0.955 0.247 0.992-0.301 1.857 0.221 2.099 1.266 0.103 0.445 0.253 0.621 0.579 0.674 0.591 0.097 1.037 0.425 1.275 0.935 0.17 0.365 0.187 0.754 0.054 1.194-0.157 0.517-0.132 0.621 0.248 1.018 0.419 0.439 0.533 0.699 0.532 1.208-0.002 0.495-0.137 0.793-0.551 1.214-0.379 0.384-0.431 0.548-0.297 0.939 0.22 0.646 0.095 1.218-0.366 1.68-0.244 0.244-0.4 0.34-0.696 0.429l-0.381 0.114 1.125 1.946c1.214 2.1 1.267 2.236 1.013 2.623-0.261 0.399-0.636 0.442-1.483 0.169-0.404-0.13-0.589-0.164-0.619-0.115-0.024 0.038-0.092 0.32-0.151 0.626-0.157 0.811-0.402 1.109-0.91 1.111-0.434 0.002-0.561-0.156-1.661-2.062-0.565-0.98-1.050-1.821-1.079-1.869-0.042-0.072-0.104-0.062-0.356 0.062-0.405 0.199-1.006 0.205-1.37 0.013l-0.252-0.133-1.068 1.854c-1.142 1.984-1.264 2.136-1.703 2.134-0.511-0.002-0.713-0.25-0.907-1.114-0.079-0.351-0.156-0.65-0.171-0.665s-0.286 0.056-0.603 0.158c-0.847 0.273-1.221 0.23-1.483-0.169-0.254-0.387-0.201-0.522 1.023-2.636 0.624-1.078 1.119-1.985 1.1-2.016s-0.070-0.056-0.114-0.056c-0.286 0-0.744-0.215-0.998-0.469-0.449-0.449-0.582-1.030-0.384-1.682 0.157-0.517 0.13-0.646-0.196-0.936-0.39-0.346-0.584-0.769-0.585-1.275-0.001-0.514 0.099-0.735 0.557-1.227 0.209-0.224 0.38-0.461 0.38-0.527s-0.042-0.238-0.094-0.384c-0.153-0.433-0.122-0.931 0.081-1.32 0.226-0.434 0.576-0.696 1.116-0.838 0.517-0.136 0.628-0.222 0.713-0.555 0.138-0.538 0.206-0.686 0.421-0.925 0.434-0.48 1.025-0.646 1.652-0.464 0.594 0.173 0.728 0.146 1.081-0.218 0.171-0.176 0.423-0.372 0.56-0.436zM15.514 6.866c-0.162 0.167-0.391 0.353-0.508 0.413-0.315 0.162-0.856 0.193-1.27 0.072-0.192-0.056-0.417-0.101-0.499-0.101-0.191 0-0.412 0.203-0.46 0.424-0.2 0.917-0.572 1.317-1.428 1.537-0.619 0.159-0.699 0.324-0.513 1.055 0.172 0.676 0.040 1.088-0.558 1.738-0.441 0.479-0.441 0.587-0.005 1.048 0.185 0.195 0.383 0.448 0.441 0.561 0.162 0.318 0.19 0.754 0.075 1.152-0.143 0.492-0.13 0.712 0.052 0.894 0.084 0.084 0.192 0.153 0.239 0.153 0.266 0 0.772 0.221 1.010 0.44 0.282 0.26 0.405 0.494 0.566 1.077 0.084 0.305 0.132 0.377 0.309 0.461 0.192 0.092 0.234 0.091 0.509-0.002 0.369-0.126 0.96-0.132 1.244-0.013 0.117 0.049 0.397 0.26 0.621 0.469 0.537 0.499 0.664 0.504 1.15 0.044 0.619-0.586 0.958-0.679 1.766-0.483 0.503 0.122 0.529 0.123 0.712 0.016 0.15-0.088 0.21-0.188 0.29-0.485 0.217-0.804 0.529-1.125 1.333-1.37 0.718-0.219 0.745-0.281 0.536-1.225-0.119-0.537 0.022-0.95 0.5-1.463 0.554-0.596 0.555-0.718 0.008-1.265-0.474-0.474-0.612-1.031-0.416-1.677 0.145-0.476 0.124-0.677-0.089-0.856-0.102-0.085-0.307-0.173-0.461-0.196-0.359-0.054-0.809-0.342-1.004-0.642-0.085-0.131-0.214-0.441-0.286-0.689-0.189-0.646-0.377-0.746-1.029-0.548-0.637 0.193-1.119 0.058-1.686-0.472-0.336-0.314-0.434-0.372-0.626-0.372-0.191 0-0.277 0.050-0.523 0.303zM14.951 8.564c0.616-0.161 1.449-0.163 2.073-0.003 1.461 0.374 2.641 1.573 3.014 3.063 0.143 0.57 0.095 1.694-0.095 2.252-0.203 0.595-0.579 1.192-1.031 1.638-1.633 1.611-4.179 1.617-5.817 0.014-0.779-0.762-1.159-1.639-1.205-2.778-0.035-0.866 0.053-1.284 0.434-2.060 0.494-1.008 1.515-1.833 2.628-2.125zM15.188 9.587c-0.925 0.259-1.788 1.045-2.092 1.908-0.659 1.869 0.489 3.808 2.451 4.141 0.358 0.061 0.548 0.061 0.906 0 1.961-0.332 3.11-2.274 2.451-4.141-0.311-0.88-1.255-1.72-2.172-1.931-0.365-0.084-1.206-0.072-1.545 0.023zM16.563 11.969c1.028-1.029 1.106-1.094 1.327-1.094 0.312 0 0.485 0.174 0.485 0.486 0 0.225-0.067 0.303-1.363 1.594-1.14 1.135-1.392 1.357-1.542 1.357-0.146 0-0.333-0.152-1.012-0.825-0.752-0.745-0.833-0.846-0.833-1.043 0-0.298 0.203-0.507 0.494-0.507 0.196 0 0.288 0.065 0.787 0.562l0.565 0.562 1.092-1.094zM19.957 18.335c-0.37 0.526-1.119 0.736-1.844 0.518l-0.282-0.085 1.823 3.168 0.107-0.495c0.125-0.58 0.233-0.769 0.519-0.904 0.277-0.132 0.382-0.126 0.938 0.050 0.259 0.082 0.471 0.141 0.471 0.131 0-0.020-1.494-2.608-1.522-2.636-0.010-0.010-0.104 0.104-0.209 0.253zM11.724 18.266c-0.132 0.205-1.412 2.427-1.412 2.45 0 0.011 0.212-0.047 0.471-0.13 0.556-0.176 0.66-0.182 0.938-0.050 0.286 0.136 0.394 0.325 0.519 0.905l0.107 0.495 0.922-1.602c0.507-0.881 0.909-1.615 0.893-1.631s-0.178 0.021-0.361 0.083c-0.682 0.23-1.317 0.081-1.765-0.415l-0.222-0.246-0.090 0.14z"></path>
</symbol>
<symbol id="icon-chat" viewBox="0 0 38 32">
<path d="M38.232 11.082v8.92c0 0.811-0.145 1.57-0.436 2.276-0.29 0.704-0.722 1.344-1.299 1.919-0.25 0.248-0.512 0.47-0.786 0.666-0.282 0.201-0.57 0.372-0.864 0.512-0.016 0.007-0.031 0.015-0.047 0.021-0.376 0.175-0.769 0.307-1.176 0.395-0.422 0.092-0.86 0.138-1.311 0.138h-2.822c0.056 0.18 0.115 0.358 0.176 0.534 0.173 0.499 0.367 0.99 0.583 1.472l0.003 0.007 0-0c0.195 0.445 0.456 0.879 0.781 1.302 0.335 0.436 0.745 0.869 1.227 1.297 0.345 0.306 0.377 0.833 0.072 1.178-0.215 0.243-0.54 0.331-0.834 0.255v0c-1.037-0.269-2.016-0.605-2.938-1.007s-1.793-0.873-2.611-1.413l-0.002 0.003c-0.813-0.532-1.574-1.13-2.281-1.795-0.599-0.563-1.159-1.174-1.678-1.833h-2.962c-0.553 0-1.083-0.069-1.589-0.206s-0.989-0.345-1.447-0.623c-0.394-0.239-0.52-0.751-0.282-1.146s0.751-0.52 1.146-0.281c0.314 0.19 0.652 0.335 1.016 0.433 0.361 0.097 0.747 0.147 1.157 0.147h3.371v0.003c0.253 0 0.504 0.115 0.668 0.334 0.527 0.704 1.11 1.356 1.747 1.954 0.629 0.591 1.314 1.128 2.052 1.611l-0.002 0.003 0.002 0.001c0.701 0.462 1.454 0.872 2.257 1.229-0.152-0.257-0.285-0.517-0.4-0.779h0c-0.229-0.512-0.44-1.046-0.633-1.603-0.183-0.529-0.347-1.072-0.492-1.629-0.032-0.089-0.050-0.186-0.050-0.286 0-0.463 0.375-0.838 0.838-0.838h3.928c0.337 0 0.656-0.033 0.958-0.098 0.287-0.062 0.56-0.153 0.819-0.273 0.012-0.007 0.025-0.013 0.038-0.020 0.218-0.104 0.423-0.224 0.615-0.361 0.2-0.142 0.392-0.305 0.577-0.489 0.417-0.417 0.727-0.873 0.932-1.369 0.203-0.494 0.305-1.041 0.305-1.641v-8.92c0-0.596-0.101-1.142-0.305-1.635-0.204-0.495-0.515-0.952-0.932-1.369v0l-0.003-0.003c-0.417-0.417-0.873-0.727-1.368-0.932-0.493-0.203-1.039-0.305-1.635-0.305h-4.142c-0.463 0-0.838-0.375-0.838-0.838s0.375-0.838 0.838-0.838h4.142c0.808 0 1.564 0.145 2.27 0.436 0.702 0.29 1.341 0.721 1.915 1.295l0.002 0.002 0.002 0.002c0.574 0.575 1.005 1.213 1.295 1.914 0.29 0.704 0.435 1.461 0.435 2.269v0zM15.060 1.676h-9.141c-0.596 0-1.142 0.101-1.635 0.305-0.495 0.204-0.952 0.515-1.369 0.932l-0.003 0.003c-0.417 0.417-0.727 0.873-0.932 1.369-0.203 0.493-0.305 1.039-0.305 1.635v8.92c0 0.6 0.101 1.147 0.305 1.642 0.204 0.496 0.515 0.953 0.932 1.369 0.419 0.417 0.878 0.728 1.376 0.934 0.493 0.203 1.037 0.306 1.631 0.306h3.927c0.463 0 0.838 0.375 0.838 0.838 0 0.101-0.018 0.197-0.050 0.286-0.145 0.556-0.309 1.1-0.492 1.629-0.193 0.556-0.404 1.091-0.633 1.603v0c-0.115 0.262-0.248 0.522-0.4 0.779 0.804-0.357 1.556-0.767 2.257-1.229l0.002-0.001-0.002-0.003c0.738-0.483 1.423-1.020 2.052-1.612 0.637-0.598 1.219-1.25 1.747-1.954 0.164-0.218 0.414-0.334 0.668-0.334v-0.003h3.37c0.595 0 1.138-0.103 1.631-0.306 0.497-0.206 0.956-0.517 1.376-0.934 0.417-0.417 0.727-0.873 0.932-1.369 0.203-0.494 0.305-1.041 0.305-1.642v-8.92c0-0.596-0.101-1.142-0.305-1.635-0.204-0.495-0.515-0.952-0.932-1.369l-0.003-0.003c-0.417-0.417-0.873-0.727-1.369-0.932-0.493-0.203-1.039-0.305-1.635-0.305l-4.143 0zM10.062 0h9.141c0.808 0 1.565 0.145 2.27 0.436 0.702 0.289 1.34 0.721 1.914 1.295l0.001 0 0.002 0.002 0.002 0.002c0.574 0.575 1.005 1.213 1.295 1.915 0.291 0.705 0.436 1.462 0.436 2.27v8.92c0 0.811-0.145 1.57-0.436 2.276-0.29 0.704-0.722 1.343-1.298 1.919-0.575 0.571-1.215 1.003-1.919 1.294s-1.459 0.437-2.266 0.437h-2.962c-0.519 0.659-1.079 1.27-1.678 1.833-0.707 0.665-1.468 1.263-2.281 1.795l-0.001-0.003c-0.819 0.539-1.689 1.011-2.611 1.413s-1.901 0.738-2.938 1.007v-0c-0.294 0.076-0.619-0.012-0.835-0.255-0.305-0.345-0.273-0.873 0.072-1.178 0.483-0.428 0.892-0.86 1.228-1.297 0.325-0.423 0.586-0.857 0.781-1.302h0l0.003-0.007c0.216-0.482 0.411-0.973 0.583-1.472 0.061-0.176 0.12-0.354 0.176-0.534h-2.821c-0.807 0-1.563-0.147-2.266-0.437s-1.344-0.723-1.919-1.294c-0.576-0.576-1.008-1.215-1.298-1.919-0.291-0.706-0.436-1.465-0.436-2.276v-8.92c0-0.808 0.145-1.565 0.436-2.27 0.29-0.702 0.721-1.34 1.295-1.915l0.002-0.002 0.002-0.002c0.575-0.574 1.213-1.005 1.915-1.295 0.706-0.291 1.462-0.436 2.27-0.436h4.143z"></path>
</symbol>
<symbol id="icon-star" viewBox="0 0 25 32">
<path d="M12.659 0.935c0.083-0.424 0.305-0.698 0.604-0.839 0.245-0.112 0.526-0.125 0.823-0.047 0.258 0.068 0.526 0.206 0.786 0.401 0.701 0.531 1.357 1.539 1.44 2.794 0.026 0.385 0.018 0.799-0.018 1.237-0.031 0.363-0.071 0.675-0.122 0.984l0.010-0.072 2.992 0.003c0.484 0.018 0.953 0.138 1.349 0.344 0.341 0.18 0.63 0.422 0.831 0.729 0.191 0.287 0.305 0.639 0.305 1.018 0 0.033-0.001 0.066-0.003 0.099l0-0.005c-0.013 0.318-0.096 0.659-0.271 1.026 0.099 0.411 0.146 0.854 0.081 1.242-0.055 0.331-0.182 0.622-0.411 0.841 0.013 0.544-0.060 1-0.208 1.398-0.151 0.406-0.375 0.745-0.667 1.042-0.026 0.263-0.068 0.51-0.133 0.745-0.083 0.294-0.203 0.563-0.37 0.799-0.508 0.716-0.914 0.701-1.557 0.674-0.089-0.003-0.188-0.008-0.333-0.008h-5.833c-0.523 0-0.938-0.076-1.313-0.266-0.372-0.188-0.69-0.471-1.029-0.898l-0.089-0.247v-6.797l0.297-0.081c0.753-0.203 1.344-0.846 1.802-1.615 0.471-0.792 0.805-1.716 1.029-2.464v-1.964l0.008-0.076zM3.904 6.424h4.341c0.331 0 0.596 0.271 0.596 0.596v7.94c0 0.328-0.271 0.596-0.596 0.596h-4.341c-0.331 0-0.596-0.271-0.596-0.596v-7.94c0-0.328 0.268-0.596 0.596-0.596zM13.596 0.818c-0.065 0.029-0.117 0.104-0.148 0.234v1.982l-0.018 0.115c-0.242 0.802-0.599 1.818-1.128 2.703-0.497 0.833-1.143 1.547-1.982 1.878v6.065c0.232 0.273 0.443 0.458 0.674 0.573 0.258 0.128 0.557 0.18 0.958 0.18h5.828c0.104 0 0.24 0.005 0.365 0.010 0.38 0.016 0.622 0.026 0.88-0.341 0.112-0.159 0.195-0.344 0.255-0.555 0.063-0.224 0.099-0.469 0.117-0.734l0.122-0.263c0.258-0.245 0.453-0.516 0.578-0.854 0.128-0.344 0.185-0.763 0.154-1.284l-0.013-0.237 0.201-0.125c0.138-0.086 0.214-0.247 0.245-0.443 0.052-0.315-0.003-0.698-0.102-1.055l0.031-0.289c0.161-0.31 0.24-0.586 0.25-0.828 0.010-0.253-0.055-0.469-0.174-0.651-0.125-0.19-0.31-0.344-0.531-0.461-0.289-0.151-0.633-0.237-0.997-0.253h-3.935l0.089-0.471c0.086-0.456 0.148-0.891 0.182-1.302 0.034-0.404 0.042-0.779 0.018-1.117-0.068-1.005-0.581-1.797-1.128-2.216-0.174-0.133-0.346-0.224-0.505-0.266-0.115-0.026-0.216-0.026-0.286 0.005z"></path>
<path d="M3.695 18.047l0.901 2.112 2.286 0.206c0.102 0.008 0.174 0.096 0.167 0.198-0.005 0.049-0.028 0.092-0.062 0.122l-0 0-0.31 0.271c-0.841 0.292-1.945 0.466-3.154 0.466s-2.313-0.177-3.154-0.466l-0.31-0.271c-0.038-0.034-0.062-0.083-0.062-0.138 0-0.046 0.017-0.088 0.044-0.12l-0 0c0.031-0.036 0.077-0.060 0.127-0.062l0-0 2.281-0.206 0.901-2.112c0.039-0.094 0.148-0.138 0.24-0.096 0.052 0.018 0.086 0.055 0.104 0.096z"></path>
<path d="M12.651 18.047l0.901 2.112 2.286 0.206c0.102 0.008 0.174 0.096 0.167 0.198-0.005 0.049-0.028 0.092-0.062 0.122l-0 0-0.31 0.271c-0.841 0.292-1.945 0.466-3.154 0.466s-2.313-0.177-3.154-0.466l-0.31-0.271c-0.038-0.034-0.062-0.083-0.062-0.138 0-0.046 0.017-0.088 0.044-0.12l-0 0c0.031-0.036 0.077-0.060 0.127-0.062l0-0 2.281-0.206 0.901-2.112c0.039-0.094 0.148-0.138 0.24-0.096 0.052 0.018 0.086 0.055 0.104 0.096z"></path>
<path d="M21.607 18.047l0.901 2.112 2.286 0.206c0.102 0.008 0.174 0.096 0.167 0.198-0.005 0.049-0.028 0.092-0.062 0.122l-0 0-0.31 0.271c-0.841 0.292-1.945 0.466-3.154 0.466s-2.313-0.177-3.154-0.466l-0.31-0.271c-0.038-0.034-0.062-0.083-0.062-0.138 0-0.046 0.017-0.088 0.044-0.12l-0 0c0.031-0.036 0.077-0.060 0.127-0.062l0-0 2.281-0.206 0.901-2.112c0.039-0.094 0.148-0.138 0.24-0.096 0.052 0.018 0.086 0.055 0.104 0.096z"></path>
<path d="M8.172 25.388l0.901 2.112 2.286 0.206c0.102 0.008 0.174 0.096 0.167 0.198-0.005 0.049-0.028 0.092-0.062 0.122l-0 0-0.31 0.271c-0.841 0.292-1.945 0.466-3.154 0.466s-2.313-0.177-3.154-0.466l-0.31-0.271c-0.038-0.034-0.062-0.083-0.062-0.138 0-0.046 0.017-0.088 0.044-0.12l-0 0c0.031-0.036 0.077-0.060 0.127-0.062l0-0 2.281-0.206 0.901-2.112c0.039-0.094 0.148-0.138 0.24-0.096 0.055 0.018 0.089 0.055 0.104 0.096z"></path>
<path d="M17.13 25.388l0.901 2.112 2.286 0.206c0.102 0.008 0.174 0.096 0.167 0.198-0.005 0.049-0.028 0.092-0.062 0.122l-0 0-0.31 0.271c-0.841 0.292-1.943 0.466-3.154 0.466-1.208 0-2.313-0.177-3.154-0.466l-0.31-0.271c-0.038-0.034-0.062-0.083-0.062-0.138 0-0.046 0.017-0.088 0.044-0.12l-0 0c0.031-0.036 0.077-0.060 0.127-0.062l0-0 2.281-0.206 0.901-2.112c0.039-0.094 0.148-0.138 0.24-0.096 0.052 0.018 0.086 0.055 0.104 0.096z"></path>
</symbol>
</defs>
</svg>